# xmcd CD database file
#
# Track frame offsets:
#	150
#	14255
#	28815
#	43230
#	59997
#	72215
#	83817
#	97270
#	109787
#	122695
#	136005
#	149362
#	161562
#	178260
#	192517
#	205527
#	218722
#	233982
#	244370
#	251940
#
# Disc length: 3537 seconds
#
# Revision: 4
# Processed by: cddbd v1.5.2PL0 Copyright (c) Steve Scherf et al.
# Submitted via: CDex 1.51
#
DISCID=360dcf14
DTITLE=Various French Artist - The Story of Chanson
DYEAR=1900
DGENRE=Chanson
TTITLE0=Edith Piaf - La Vie En Rose
TTITLE1=Josephine Baker - J'ai Deux Amours
TTITLE2=Charles Trenet - Que Reste-t-il de nos Amours
TTITLE3=Gilbert Becaud - Les Marches de Provence
TTITLE4=Bourvil - A Joinville-le-Pont
TTITLE5=Maurice Chevalier - Fleur de Paris
TTITLE6=Damia - Les Goelands
TTITLE7=Frehel - La Java Bleue
TTITLE8=Lucienne Delyle - Mon Amant de Saint-Jean
TTITLE9=Lucienne Boyer - Parlez-Moi d'Amour
TTITLE10=Jean Sablon - Je Tire ma Reverence
TTITLE11=Henri Salvador - Syracuse
TTITLE12=Georges Guetary - La Boheme
TTITLE13=Germaine Montero - La Fille de Londres
TTITLE14=Juliette Greco - Si Tu t'Imagines
TTITLE15=Line Renaud - Ma Cabane au Canada
TTITLE16=Cora Vaucaire - Complainte de la Butte
TTITLE17=Zizi Jeanmaire - Mon Truc en Plume
TTITLE18=Barbara - La Joconde
TTITLE19=Georges Ulmer - Pigalle
EXTD=
EXTT0=
EXTT1=
EXTT2=
EXTT3=
EXTT4=
EXTT5=
EXTT6=
EXTT7=
EXTT8=
EXTT9=
EXTT10=
EXTT11=
EXTT12=
EXTT13=
EXTT14=
EXTT15=
EXTT16=
EXTT17=
EXTT18=
EXTT19=
PLAYORDER=
